<?xml version="1.0" encoding="UTF-8" standalone="no"?>
<!DOCTYPE svg PUBLIC "-//W3C//DTD SVG 1.1//EN" "http://www.w3.org/Graphics/SVG/1.1/DTD/svg11.dtd">
<!-- Created with Vectornator (http://vectornator.io/) -->
<svg height="100%" stroke-miterlimit="10" style="fill-rule:nonzero;clip-rule:evenodd;stroke-linecap:round;stroke-linejoin:round;" version="1.1" viewBox="0 0 1024 1011.51" width="100%" xml:space="preserve" xmlns="http://www.w3.org/2000/svg" xmlns:vectornator="http://vectornator.io" xmlns:xlink="http://www.w3.org/1999/xlink">
<defs/>
<g id="Layer-1" vectornator:layerName="Layer 1">
<path d="M282.305 322.304C262.545 312.756 243.88 300.491 223.023 293.66C213.804 290.641 197.343 304.248 195.206 311.416C192.76 319.621 194.079 328.748 196.01 337.088C207.319 385.928 221.164 434.155 234.797 482.398C237.585 492.264 242.2 515.455 256.943 519.39C265.417 521.652 274.608 521.134 283.255 519.662C307.993 515.452 332.274 508.837 356.537 502.441C384.802 494.989 413.284 488.018 440.791 478.129C449.766 474.903 458.34 469.879 465.287 463.345C471.311 457.68 468.845 439.312 464.545 434.951C449.61 419.804 430.829 409.004 413.971 396.031C462.95 308.69 462.95 308.69 511.93 221.348C529.416 249.391 545.236 278.544 564.387 305.478C569.409 312.54 576.051 319.018 583.935 322.613C594.62 327.485 616.133 316.673 623.278 312.901C641.771 303.139 660.361 293.39 677.715 281.724C684.928 276.874 693.19 271.689 696.521 263.66C700.156 254.898 701.116 243.759 697.016 235.205C674.728 188.712 646.055 145.531 618.886 101.711C606.582 81.8648 593.762 62.1722 578.682 44.344C550.579 11.1203 492.966 10.7023 459.349 34.2212C451.784 39.5135 445.068 46.3984 440.234 54.2639C385.937 142.615 334.948 232.957 282.305 322.304ZM700.975 397.526C690.598 407.326 690.149 405.043 686.376 418.744C672.68 468.47 658.72 518.142 646.538 568.26C644.062 578.444 640.996 589.058 642.455 599.437C643.326 605.633 648.561 610.589 653.095 614.902C656.422 618.068 660.802 621.896 665.343 621.212C681.118 618.835 695.23 609.727 710.791 606.207C719.834 604.161 729.236 612.278 735.369 619.232C774.628 663.751 800.988 718.253 830.633 769.676C796.784 770.151 762.917 769.945 729.084 771.101C697.576 772.179 697.134 801.337 696.892 827.082C696.725 844.802 696.967 862.585 698.8 880.21C699.976 891.52 700.466 907.588 710.902 912.103C716.06 914.334 721.718 915.483 727.32 915.938C754.257 918.128 781.27 919.775 808.294 920.021C852.778 920.427 897.339 920.721 941.734 917.893C951.806 917.252 961.971 914.426 970.87 909.666C986.318 901.403 1002.15 883.062 1009.97 867.353C1016.56 854.095 1023.28 830.872 1020.17 815.515C1017.07 800.175 1012.14 784.969 1004.77 771.161C959.526 686.356 908.017 604.997 862.652 520.256C861.43 517.973 864.861 515.272 867.007 513.823C876.132 507.659 886.734 503.909 895.896 497.801C907.673 489.95 917.863 484.392 917.052 469.469C916.719 463.347 915.616 456.919 912.474 451.653C909.319 446.366 904.766 441.049 898.927 439.096C857.082 425.099 813.881 415.53 771.186 404.392C753.168 399.692 734.936 395.856 700.975 397.526ZM132.851 591.519C102.483 623.643 83.0551 664.719 61.5883 703.362C49.9263 724.356 38.3021 745.399 27.8573 767.024C20.9531 781.318 13.924 795.733 9.59614 811.006C-6.205 866.769 45.0495 914.896 97.1257 916.775C160.102 919.046 223.185 917.873 286.133 920.81C313.452 922.085 340.886 924.168 367.729 929.402C377.982 931.4 390.483 933.608 396.294 942.288C404.911 955.163 400.714 973.294 406.679 987.592C411.577 999.333 432.842 1003.77 442.835 997.084C450.284 992.098 456.823 985.82 463.184 979.506C503.626 939.363 546.524 901.381 583.193 857.765C587.437 852.717 584.75 844.067 582.144 838.009C578.376 829.252 571.36 822.2 564.882 815.205C538.657 786.884 511.717 759.21 484.155 732.189C469.692 718.01 455.942 702.574 438.873 691.671C434.124 688.637 427.345 690.733 421.985 692.475C387.331 703.739 416.166 751.81 378.953 760.694C361.631 764.829 343.966 768.129 326.179 769.008C283.233 771.13 240.183 769.454 197.186 769.676C212.774 741.55 229.108 713.825 243.952 685.299C247.497 678.486 254.232 662.702 248.901 653.874C244.256 646.183 237.676 639.517 230.343 634.326C213.475 622.385 195.017 612.837 176.896 602.901C168.516 598.307 159.575 594.818 132.851 591.519Z" fill="#ffffff" fill-rule="nonzero" opacity="1" stroke="none"/>
</g>
</svg>
